<?xml version="1.0" encoding="utf-8"?>
<!-- Generator: Adobe Illustrator 24.0.0, SVG Export Plug-In . SVG Version: 6.00 Build 0)  -->
<svg version="1.1" id="Lager_1" xmlns="http://www.w3.org/2000/svg" xmlns:xlink="http://www.w3.org/1999/xlink" x="0px" y="0px"
	 viewBox="0 0 300 300" style="enable-background:new 0 0 300 300;" xml:space="preserve">
<style type="text/css">
	.st0{fill:#0A0A14;}
</style>
<g>
	<circle class="st0" cx="150" cy="150" r="40"/>
	<path class="st0" d="M258.3,130.9c10.5,59.7-29.5,116.9-89.2,127.4c-59.7,10.5-116.9-29.5-127.4-89.2S71.2,52.2,130.9,41.7
		L231.3,24C200.6,4.2,162.7-4.6,123.9,2.3C42.4,16.7-12.1,94.5,2.3,176.1S94.5,312.1,176,297.7c81.6-14.4,136.1-92.2,121.7-173.8
		c-2.4-13.6-6.6-26.5-12.3-38.5L244,92.8C251,104.5,255.9,117.4,258.3,130.9z"/>
	<path class="st0" d="M134.4,61.4c-48.9,8.6-81.6,55.4-73,104.3s55.4,81.6,104.3,73s81.6-55.4,73-104.3c-2.4-13.7-8-26.7-16.2-37.8
		l-35.4,6.2c11.2,8.8,19.4,21.6,22,36.7c5.7,32.6-16.1,63.8-48.7,69.5c-32.6,5.7-63.8-16.1-69.5-48.7c-5.7-32.6,16.1-63.8,48.7-69.5
		L275,67c-6.5-9.7-14-18.6-22.4-26.5L134.4,61.4z"/>
</g>
</svg>
