<svg id="Lager_1" data-name="Lager 1" xmlns="http://www.w3.org/2000/svg" viewBox="0 0 1000 1000"><defs><style>.cls-1{fill:#0a0a14;}</style></defs><title>whistle</title><g id="transparent_dark"><circle class="cls-1" cx="500" cy="500.01" r="133.31"/><path class="cls-1" d="M861,436.35c35.1,199.07-98.3,389.59-297.38,424.69S174.07,762.74,139,563.67s98.3-389.6,297.38-424.7L771,80A498.18,498.18,0,0,0,413.19,7.68C141.29,55.63-40.26,314.91,7.68,586.82s307.23,453.45,579.13,405.51S1040.26,685.1,992.32,413.2A500.3,500.3,0,0,0,951.44,285L813.18,309.42A367.26,367.26,0,0,1,861,436.35Z"/><path class="cls-1" d="M447.91,204.61c-162.87,28.72-272,184.6-243.3,347.48s184.6,272,347.48,243.31,272-184.6,243.3-347.48a300.17,300.17,0,0,0-53.87-125.87l-118,20.82a199.09,199.09,0,0,1,73.46,122.41c19.15,108.59-53.62,212.51-162.21,231.66s-212.5-53.62-231.65-162.21,53.62-212.51,162.21-231.65L916.59,223.5a499.44,499.44,0,0,0-74.8-88.34Z"/></g></svg>