<?xml version="1.0" encoding="utf-8"?>
<!-- Generator: Adobe Illustrator 24.0.0, SVG Export Plug-In . SVG Version: 6.00 Build 0)  -->
<svg version="1.1" id="Lager_1" xmlns="http://www.w3.org/2000/svg" xmlns:xlink="http://www.w3.org/1999/xlink" x="0px" y="0px"
	 viewBox="0 0 1000 1000" style="enable-background:new 0 0 1000 1000;" xml:space="preserve">
<style type="text/css">
	.st0{fill:#0A0A14;}
	.st1{fill:#FFFFFF;}
</style>
<g id="Dark">
	<circle class="st1" cx="500" cy="500" r="500"/>
	<g id="Transparent_1_">
		<circle class="st0" cx="500" cy="500" r="133.3"/>
		<path class="st0" d="M861,436.3c35.1,199.1-98.3,389.6-297.4,424.7C364.6,896.1,174.1,762.7,139,563.7S237.3,174.1,436.3,139
			L771,80C668.8,14,542.4-15.1,413.2,7.7C141.3,55.6-40.3,314.9,7.7,586.8s307.2,453.5,579.1,405.5s453.5-307.2,405.5-579.1
			c-8-45.5-22-88.4-40.9-128.2l-138.3,24.4C836.7,348.2,853.1,391.2,861,436.3z"/>
		<path class="st0" d="M447.9,204.6c-162.9,28.7-272,184.6-243.3,347.5s184.6,272,347.5,243.3s272-184.6,243.3-347.5
			c-8.1-45.7-26.6-88.8-53.9-125.9l-118,20.8c37.4,29.4,64.6,72,73.5,122.4c19.1,108.6-53.6,212.5-162.2,231.7
			c-108.6,19.1-212.5-53.6-231.7-162.2c-19.1-108.6,53.6-212.5,162.2-231.7l451.3-79.6c-21.6-32.4-46.7-62.1-74.8-88.3L447.9,204.6z
			"/>
	</g>
</g>
</svg>
