<svg id="Lager_1" data-name="Lager 1" xmlns="http://www.w3.org/2000/svg" viewBox="0 0 1000 1000"><defs><style>.cls-1{fill:#fff;}</style></defs><title>whistle</title><g id="transparent_light"><circle class="cls-1" cx="500" cy="500" r="133.31"/><path class="cls-1" d="M861,436.34c35.1,199.08-98.3,389.6-297.38,424.7S174.07,762.74,139,563.66,237.26,174.07,436.34,139L771,80A498.13,498.13,0,0,0,413.19,7.68C141.29,55.62-40.26,314.91,7.68,586.81s307.23,453.46,579.13,405.51S1040.26,685.1,992.32,413.19A500.55,500.55,0,0,0,951.44,285L813.18,309.41A367.41,367.41,0,0,1,861,436.34Z"/><path class="cls-1" d="M447.91,204.61c-162.87,28.72-272,184.6-243.3,347.48s184.6,272,347.48,243.31,272-184.6,243.3-347.48a300.17,300.17,0,0,0-53.87-125.87l-118,20.81a199.14,199.14,0,0,1,73.46,122.42c19.15,108.59-53.62,212.51-162.21,231.65s-212.5-53.62-231.65-162.2,53.62-212.51,162.21-231.66L916.59,223.5a499.08,499.08,0,0,0-74.8-88.34Z"/></g></svg>