<svg id="Lager_1" data-name="Lager 1" xmlns="http://www.w3.org/2000/svg" viewBox="0 0 3500 1000"><defs><style>.cls-1{fill:#fff;}</style></defs><title>whistle</title><g id="horizontal_light"><g id="transparent_light"><circle class="cls-1" cx="500" cy="500" r="93.32"/><path class="cls-1" d="M752.73,455.44c24.57,139.35-68.81,272.72-208.17,297.29S271.85,683.92,247.27,544.56s68.81-272.71,208.17-297.28L689.71,206a348.66,348.66,0,0,0-250.48-50.59C248.9,188.94,121.81,370.44,155.37,560.77s215.07,317.42,405.4,283.86S878.19,629.57,844.63,439.24A350.87,350.87,0,0,0,816,349.52l-96.78,17.07A257.25,257.25,0,0,1,752.73,455.44Z"/><path class="cls-1" d="M463.54,293.23c-114,20.1-190.42,129.22-170.32,243.23S422.44,726.88,536.46,706.78,726.88,577.56,706.78,463.54a210.19,210.19,0,0,0-37.72-88.11L586.43,390a139.42,139.42,0,0,1,51.42,85.7c13.4,76-37.53,148.75-113.54,162.15S375.55,600.32,362.15,524.31s37.53-148.76,113.54-162.16l315.92-55.7a349.18,349.18,0,0,0-52.35-61.84Z"/></g><path class="cls-1" d="M1112.38,696l-95.87-268.18H972.9V372.21h150.8v55.61h-46.85L1145.32,620l68.38-192.17h-39V372.21h173v55.61h-39.37L1376.7,620l68.65-192.17h-49.24V372.21h161.52v55.61h-51.38l-96,268.18h-66.11l-82.06-230.34L1178.59,696Z"/><path class="cls-1" d="M1622.68,635.12V288.63H1558V233h134.91V408.73q63.19-45.41,120.12-45.4,35.49,0,58.4,13.16t31.23,34.71q8.33,21.56,8.32,63v160.9h61v55.61H1840.75V495.93q0-36.19-2.58-48.37t-14.23-20.07q-11.65-7.89-27.54-7.9-40.67,0-103.49,41.13v174.4H1755v55.61H1558V635.12Z"/><path class="cls-1" d="M2056.61,635.12V427.82h-55.45V372.21h125.67V635.12h55.45v55.61H2001.16V635.12Zm-10-371.17q0-15.13,12-26.32t30.49-11.19q17.37,0,29.94,10.86T2131.64,264q0,15.8-12.57,26.82a43.89,43.89,0,0,1-29.94,11q-17.74,0-30.12-11.18T2046.63,264Z"/><path class="cls-1" d="M2228.48,690.73V581.49h62.83V592q3.33,22.38,27.17,36.85t56.36,14.48q34,0,54.34-10.53t20.33-29.29q0-18.09-16.82-26.65T2366,561.13q-73.93-11.11-105.52-36t-31.59-64.37q0-39.84,34.37-66.68t90.56-26.84q50.63,0,87.22,18.56V372.21h62.47V477.83H2441V458.42q-28.45-39.15-82.79-39.16-27.72,0-45.65,10.7t-17.92,28.46q0,18.1,16.45,24.84t70.78,14.28q52.13,7.21,78.73,16.92a97.21,97.21,0,0,1,44.16,32.26q17.55,22.54,17.56,52.5,0,44.43-38.26,70.61T2384.82,696q-57.29,0-93.51-23.17v17.9Z"/><path class="cls-1" d="M2567,427.82V372.21h46.57v-49l70.23-57.25V372.21H2750v55.61h-66.16V582.47q0,37.2,4.62,45.91t23.1,8.72a115.55,115.55,0,0,0,38.44-6.59v56.93a177.82,177.82,0,0,1-54,8.56q-32.16,0-52.12-12.67t-25.13-31.76q-5.19-19.08-5.18-65.81V427.82Z"/><path class="cls-1" d="M2851.28,635.12V288.63H2787.7V233h133.8v402.1h54.71v55.61H2787.7V635.12Z"/><path class="cls-1" d="M3399.41,547.26H3098.55q6.64,44.1,39.18,71.41T3220.89,646q73.55,0,116.43-52.65l62.09,24.35q-30.32,41.79-78.73,62A260.08,260.08,0,0,1,3219.41,700q-82,0-140.27-45.58t-58.21-122.9q0-73.38,56.73-120.76T3208,363.33q72.08,0,130.66,46.23T3399.41,547.26ZM3327,501.86q-7.39-33.57-39.18-60.71t-78-27.15q-42.14,0-72.07,24.51t-36.6,63.35Z"/></g></svg>