<?xml version="1.0" encoding="utf-8"?>
<!-- Generator: Adobe Illustrator 24.0.0, SVG Export Plug-In . SVG Version: 6.00 Build 0)  -->
<svg version="1.1" id="Lager_1" xmlns="http://www.w3.org/2000/svg" xmlns:xlink="http://www.w3.org/1999/xlink" x="0px" y="0px"
	 viewBox="0 0 3500 1000" style="enable-background:new 0 0 3500 1000;" xml:space="preserve">
<style type="text/css">
	.st0{fill:#0A0A14;}
	.st1{fill:#FFFFFF;}
	.st2{font-family:'Rockwell';}
	.st3{font-size:673.897px;}
</style>
<g id="Dark_1_">
	<circle class="st1" cx="500" cy="500" r="350"/>
	<g id="Transparent_3_">
		<circle class="st0" cx="500" cy="500" r="93.3"/>
		<path class="st0" d="M752.7,455.4c24.6,139.4-68.8,272.7-208.2,297.3c-139.4,24.6-272.7-68.8-297.3-208.2s68.8-272.7,208.2-297.3
			L689.7,206c-71.5-46.2-160-66.5-250.5-50.6c-190.3,33.6-317.4,215.1-283.9,405.4s215.1,317.4,405.4,283.9
			c190.3-33.6,317.4-215.1,283.9-405.4c-5.6-31.8-15.4-61.9-28.6-89.7l-96.8,17.1C735.7,393.7,747.2,423.9,752.7,455.4z"/>
		<path class="st0" d="M463.5,293.2c-114,20.1-190.4,129.2-170.3,243.2c20.1,114,129.2,190.4,243.2,170.3s190.4-129.2,170.3-243.2
			c-5.6-32-18.6-62.2-37.7-88.1L586.4,390c26.2,20.6,45.2,50.4,51.4,85.7c13.4,76-37.5,148.8-113.5,162.2
			c-76,13.4-148.8-37.5-162.2-113.5c-13.4-76,37.5-148.8,113.5-162.2l315.9-55.7c-15.1-22.7-32.7-43.4-52.4-61.8L463.5,293.2z"/>
	</g>
</g>
<text transform="matrix(1.1233 0 0 1 974.0146 690.7314)" class="st2 st3">whistle</text>
</svg>
