<?xml version="1.0" encoding="utf-8"?>
<!-- Generator: Adobe Illustrator 24.0.0, SVG Export Plug-In . SVG Version: 6.00 Build 0)  -->
<svg version="1.1" id="Lager_1" xmlns="http://www.w3.org/2000/svg" xmlns:xlink="http://www.w3.org/1999/xlink" x="0px" y="0px"
	 viewBox="0 0 1000 1000" style="enable-background:new 0 0 1000 1000;" xml:space="preserve">
<style type="text/css">
	.st0{fill:#0A0A14;}
	.st1{fill:#FFFFFF;}
</style>
<g id="Transparent">
	<circle class="st0" cx="500" cy="500" r="133.3"/>
	<path class="st0" d="M861.1,436.3c35.1,199.1-98.3,389.7-297.4,424.8S174,762.8,138.9,563.7S237.2,174,436.3,138.9l334.7-59
		c-102.2-66-228.6-95.1-357.9-72.3C141.2,55.6-40.4,314.9,7.6,586.8s307.3,453.5,579.2,405.6c271.9-48,453.5-307.3,405.6-579.2
		c-8-45.5-22-88.4-40.9-128.2l-138.3,24.4C836.8,348.2,853.1,391.2,861.1,436.3z"/>
	<path class="st0" d="M447.9,204.6C285,233.3,175.8,389.2,204.6,552.1s184.6,272.1,347.5,243.3C715,766.7,824.2,610.8,795.4,447.9
		c-8.1-45.7-26.6-88.9-53.9-125.9l-118.1,20.8c37.4,29.4,64.6,72,73.5,122.4c19.1,108.6-53.6,212.5-162.2,231.7
		S322.2,643.3,303,534.7C283.9,426.1,356.7,322.2,465.3,303l451.4-79.6c-21.6-32.4-46.7-62.1-74.8-88.4L447.9,204.6z"/>
</g>
</svg>
