<?xml version="1.0" encoding="UTF-8" standalone="no"?>
<!DOCTYPE svg PUBLIC "-//W3C//DTD SVG 1.1//EN" "http://www.w3.org/Graphics/SVG/1.1/DTD/svg11.dtd">
<svg width="100%" height="100%" viewBox="0 0 200 200" version="1.1" xmlns="http://www.w3.org/2000/svg" xmlns:xlink="http://www.w3.org/1999/xlink" xml:space="preserve" xmlns:serif="http://www.serif.com/" style="fill-rule:evenodd;clip-rule:evenodd;stroke-linejoin:round;stroke-miterlimit:2;">
    <g id="ligth">
        <path d="M172.191,87.274C179.19,127.069 152.527,165.197 112.732,172.196C72.937,179.196 34.808,152.532 27.809,112.737C20.81,72.942 47.473,34.814 87.268,27.814L154.193,16.016C133.729,2.818 108.466,-3.048 82.602,1.551C28.276,11.15 -8.053,63.01 1.546,117.403C11.144,171.796 63.005,208.059 117.331,198.46C171.724,188.861 208.053,137.001 198.454,82.608C196.855,73.542 194.055,64.943 190.255,56.944L162.659,61.877C167.325,69.676 170.591,78.275 172.191,87.274ZM89.601,40.946C57.005,46.679 35.208,77.875 40.941,110.471C46.673,143.067 77.869,164.864 110.465,159.131C143.061,153.399 164.859,122.203 159.126,89.607C157.526,80.475 153.793,71.809 148.327,64.41L124.73,68.543C132.196,74.409 137.662,82.941 139.395,93.006C143.195,114.737 128.663,135.534 106.933,139.334C85.202,143.133 64.404,128.602 60.605,106.871C56.805,85.141 71.337,64.343 93.068,60.544L183.323,44.679C178.99,38.213 173.991,32.281 168.392,27.015L89.601,40.946ZM100,73.342C114.716,73.342 126.663,85.29 126.663,100.005C126.663,114.721 114.716,126.669 100,126.669C85.284,126.669 73.337,114.721 73.337,100.005C73.337,85.29 85.284,73.342 100,73.342Z"/>
    </g>
</svg>
