<svg id="Lager_1" data-name="Lager 1" xmlns="http://www.w3.org/2000/svg" viewBox="0 0 1000 1000"><defs><style>.cls-1{fill:#0a0a14;}</style></defs><title>whistle</title><g id="Transparent"><circle class="cls-1" cx="500" cy="500.01" r="133.33"/><path class="cls-1" d="M861.1,436.34C896.2,635.45,762.78,826,563.67,861.1S174,762.79,138.9,563.68,237.22,174,436.33,138.91l334.72-59A498.2,498.2,0,0,0,413.18,7.6C141.23,55.55-40.36,314.88,7.6,586.83s307.28,453.53,579.22,405.58S1040.36,685.13,992.4,413.18A500.18,500.18,0,0,0,951.52,285L813.23,309.39A367.46,367.46,0,0,1,861.1,436.34Z"/><path class="cls-1" d="M447.91,204.56C285,233.29,175.83,389.19,204.56,552.1S389.19,824.17,552.09,795.45,824.17,610.82,795.44,447.91A300.14,300.14,0,0,0,741.56,322L623.5,342.84A199.2,199.2,0,0,1,697,465.28C716.11,573.88,643.33,677.82,534.73,697S322.19,643.34,303,534.74,356.67,322.19,465.27,303l451.39-79.59a499.56,499.56,0,0,0-74.81-88.35Z"/></g></svg>