<svg id="Lager_1" data-name="Lager 1" xmlns="http://www.w3.org/2000/svg" viewBox="0 0 3500 1000"><defs><style>.cls-1{fill:#0a0a14;}</style></defs><title>whistle</title><g id="horizontal_dark"><g id="transparent_dark"><circle class="cls-1" cx="500" cy="500" r="93.32"/><path class="cls-1" d="M752.73,455.44c24.57,139.35-68.81,272.72-208.17,297.29S271.85,683.92,247.27,544.56s68.81-272.71,208.17-297.28L689.71,206a348.66,348.66,0,0,0-250.48-50.59C248.9,188.94,121.81,370.44,155.37,560.77s215.07,317.42,405.4,283.86S878.19,629.57,844.63,439.24A350.87,350.87,0,0,0,816,349.52l-96.78,17.07A257.25,257.25,0,0,1,752.73,455.44Z"/><path class="cls-1" d="M463.54,293.23c-114,20.1-190.42,129.22-170.32,243.23S422.44,726.88,536.46,706.78,726.88,577.56,706.78,463.54a210.19,210.19,0,0,0-37.72-88.11L586.43,390a139.42,139.42,0,0,1,51.42,85.7c13.4,76-37.53,148.75-113.54,162.15S375.55,600.32,362.15,524.31s37.53-148.76,113.54-162.16l315.92-55.7a349.18,349.18,0,0,0-52.35-61.84Z"/></g><path d="M1112.39,696l-95.87-268.18H972.91V372.21h150.8v55.61h-46.86L1145.33,620l68.38-192.17h-39V372.21h173v55.61h-39.36L1376.71,620l68.65-192.17h-49.25V372.21h161.52v55.61h-51.37L1410.3,696h-66.12l-82-230.34L1178.6,696Z"/><path d="M1622.69,635.12V288.63H1558V233h134.91V408.73q63.21-45.41,120.13-45.4,35.48,0,58.4,13.16t31.23,34.71q8.31,21.56,8.32,63v160.9h61v55.61H1840.76V495.93q0-36.19-2.59-48.37t-14.23-20.07q-11.64-7.89-27.53-7.9-40.67,0-103.5,41.13v174.4H1755v55.61H1558V635.12Z"/><path d="M2056.61,635.12V427.82h-55.44V372.21h125.67V635.12h55.44v55.61H2001.17V635.12Zm-10-371.17q0-15.13,12-26.32t30.49-11.19q17.37,0,29.94,10.86T2131.64,264q0,15.8-12.56,26.82a43.89,43.89,0,0,1-29.94,11q-17.74,0-30.13-11.18T2046.63,264Z"/><path d="M2228.48,690.73V581.49h62.84V592q3.33,22.38,27.16,36.85t56.37,14.48q34,0,54.33-10.53t20.33-29.29q0-18.09-16.82-26.65T2366,561.13q-73.93-11.11-105.53-36t-31.59-64.37q0-39.84,34.38-66.68t90.55-26.84q50.64,0,87.23,18.56V372.21h62.47V477.83H2441V458.42q-28.47-39.15-82.79-39.16-27.72,0-45.65,10.7t-17.93,28.46q0,18.1,16.45,24.84t70.79,14.28q52.11,7.21,78.73,16.92a97.21,97.21,0,0,1,44.16,32.26q17.55,22.54,17.56,52.5,0,44.43-38.26,70.61T2384.83,696q-57.3,0-93.51-23.17v17.9Z"/><path d="M2567.05,427.82V372.21h46.57v-49l70.23-57.25V372.21H2750v55.61h-66.16V582.47q0,37.2,4.62,45.91t23.1,8.72a115.55,115.55,0,0,0,38.44-6.59v56.93a177.83,177.83,0,0,1-54,8.56q-32.14,0-52.11-12.67t-25.14-31.76q-5.17-19.08-5.17-65.81V427.82Z"/><path d="M2851.28,635.12V288.63h-63.57V233h133.8v402.1h54.7v55.61h-188.5V635.12Z"/><path d="M3399.42,547.26H3098.55q6.66,44.1,39.18,71.41T3220.89,646q73.56,0,116.43-52.65l62.1,24.35q-30.32,41.79-78.73,62A260.08,260.08,0,0,1,3219.42,700q-82.07,0-140.27-45.58t-58.22-122.9q0-73.38,56.74-120.76T3208,363.33q72.08,0,130.66,46.23T3399.42,547.26ZM3327,501.86q-7.39-33.57-39.18-60.71t-78-27.15q-42.15,0-72.08,24.51t-36.59,63.35Z"/></g></svg>